<?xml version="1.0" encoding="UTF-8" standalone="no"?>
<!DOCTYPE svg PUBLIC "-//W3C//DTD SVG 1.1//EN" "http://www.w3.org/Graphics/SVG/1.1/DTD/svg11.dtd">
<svg width="400" height="400" viewBox="0 0 400 400" xmlns="http://www.w3.org/2000/svg"
>
    <style>
        text {
        fill: #f4f4f4;
        font-family: monospace;
        font-size: 16px;
        font-style: italic;
        text-align: center;
        }
    </style>
    <path d="
    M 200 260
    A 60 60 0 0 1 140 200
    L 200 200
    L 200 80
    L 260 80
    L 260 200
    L 320 200
    L 200 320
    Z
    " fill="#069d9f" stroke="#069d9f" stroke-width="2" fill-opacity="0.5"/>
    <g fill="none" stroke="#f4f4f4" stroke-width="2">
        <line x1="200" y1="25" x2="200" y2="375"/>
        <line x1="25" y1="200" x2="375" y2="200"/>
        <path d="M 365 205 L 375 200 L 365 195 "/>
        <path d="M 195 35 L 200 25 L 205 35 "/>
        <line x1="195" y1="80" x2="205" y2="80"/>
        <line x1="195" y1="140" x2="205" y2="140"/>
        <line x1="195" y1="260" x2="205" y2="260"/>
        <line x1="195" y1="320" x2="205" y2="320"/>
        <line x1="80" y1="195" x2="80" y2="205"/>
        <line x1="140" y1="195" x2="140" y2="205"/>
        <line x1="260" y1="195" x2="260" y2="205"/>
        <line x1="320" y1="195" x2="320" y2="205"/>
    </g>
    <text x="360" y="220">x</text>
    <text x="180" y="40">y</text>
</svg>